<svg id="infobokse" xmlns="http://www.w3.org/2000/svg" viewBox="0 0 293.54 84">
  <title>Kunstpakhuset3</title>
  <g id="bygning">
    <path d="M69.1,79c-.2-.3-.6-.2-.9-.3,1.3-.4.5-1.7,1.2-2.3,0,.1.1.2.1.3,0,.4,0,.7.6.7s.5-.4.5-.7V62c0-.4.1-.9-.5-.8-.3,0-.6-.2-.7.4s.3.8.8.9c-.6.1-.8.4-.8,1,0,2.1,0,4.2-.2,6.3V63.6c0-.7-.2-1-.9-.9a7.82,7.82,0,0,1-2.6-.2h2.5c.4,0,1,.4,1-.5s-.6-.6-1-.6c-2.7,0-5.4.1-8.1.2H57.5c-.3,0-.6-.1-.6.3s.3.4.6.4h2.9c-.7.4-.7.3-1.8.4-.6.1-1.3-.7-1.8.2-.1.2-.9-.5-.8.5-.1-.6-.2-.8-.9-.8-1.6,0-3.1.2-4.6.1-.6-.1-1.1-.1-1.2.7a8.79,8.79,0,0,1-.3-2h-.1c-.1.6-.1,1.1-.2,1.7-.1-.7-.5-.8-1.1-.8H44.2c-.9,0-2-.3-1.6,1.5a6.93,6.93,0,0,1-.1-3.2c.5.6,1.2.2,1.7.6-.1,0-.1.1-.2.1-.4.3-1.3-.4-1.3.3s.9.4,1.4.4c1.1.1,2.2,0,3.4,0,.4,0,.9.2.9-.4s-.6-.3-1-.3a21.05,21.05,0,0,1-2.5-.2H55.5c.6,0,.9-.1.9-.8A6,6,0,0,1,58,56.8c.2-.2.4-.7,1-.4a5.61,5.61,0,0,0-2.2,4.7c1.9,0,3.9.3,5.7-.1,2.2-.4,4.4,0,6.6-.1.9-.1,1.4-.2,1.2-1.2.3,1,.3,1,1.9,1.3a.35.35,0,0,1-.1.2c-1.6,0-1.5,0-1.5,1.7,0,4.5.2,9,0,13.4,0,.8.3,1.2,1.2,1.2,5.8-.1,11.6-.1,17.3-.2,11.7-.1,23.4-.1,35-.1.3,0,.6.1,1.3.1a33.14,33.14,0,0,1-6.2.2c-4.7.1-9.4.1-14.1.1-11.5,0-23.1.1-34.6,0-1.5,0-1,.9-1.3,1.5ZM52.5,62h0a22.6,22.6,0,0,0,2.6.1c.3,0,.6,0,.5-.4s-.3-.3-.5-.3H49.8c-.3,0-.4.1-.5.4s.3.3.5.3A24.37,24.37,0,0,1,52.5,62Z" transform="translate(-6.9 -6.9)"/>
    <path d="M267.5,76.5c.3.2,1,.3.2.9-.3.2.2.9-.1,1.3a.35.35,0,0,1-.2-.1c.2-1.4-.5-1.5-1.7-1.5q-4.5-.15-9,0h0c.1-.7.6-.5,1-.5,2.1,0,4.2-.1,6.2,0,1,0,1.3-.2,1.3-1.2V35.3c0-.8-.2-1.1-1-1.2a3.77,3.77,0,0,1-2.3-1c1,.3,1.8.8,2.4.7a8.09,8.09,0,0,1,2.2,0c1.1,0,.2-.9.8-1.2-.1,1.7,1.2,1.2,2.3,1.2l-.3.3c-1.9.2-1.9.2-1.9,2.1V72.5c0,.9-.3,2,.2,2.5s1.7.2,2.5.2c6,0,12-.1,18-.1,1.5,0,3-.1,4.5,0,1,.1,1.4-.1,1.2-1.3a4,4,0,0,1,.3-2.6V74c0,.4-.3,1,.5,1.1.3,0,.2.4,0,.4-.6.1-.4.6-.7,1.3,0-1.1-.4-1.3-1.1-1.3-2.7.1-5.4.1-8.1.1H268.4c-.5.1-1.1,0-.9.9-.4-.3-.4-1.2-1.3-1.1.9,0,1-.4,1-1.1,0-13,0-26-.1-39.1,0-.5.2-1.1-.8-1s-.8.6-.8,1.1V75.2C265.6,77,265.7,77.1,267.5,76.5Z" transform="translate(-6.9 -6.9)"/>
    <path d="M219.9,81.1c-3.6,0-7.3.1-10.9.1-.7,0-1.3,0-1.3,1.1.2-1.1-.6-1.1-1.3-1.3,1.2,0,1.3-.7,1.1-1.4-.4-1.4-.3-2.9-1-4.2a7.89,7.89,0,0,0-3.6-3.4,4.94,4.94,0,0,1,4.1,3.6,1.8,1.8,0,0,0,1.9,1.3c4,0,8,.1,11.9,0,4.5-.1,9-.1,13.5-.1h16.3c.6,0,1.1-.1,1.7-.1,1.9,0,1.9,0,2-1.8.2,0,.2.2.2.3-.2,1.2.2,1.7,1.4,1.5a.76.76,0,0,1,.9.5h0c-2.2-.1-2.2-.1-2.3,2.1-.1,1.1.3,2.2-.1,3.3.2-1.3-.6-1.5-1.5-1.5H220.5a1.15,1.15,0,0,0-.6,0c.2-.5.7-.3,1.1-.4h32.3c.4,0,.9.2,1-.5.4-3.1.2-3.4-2.9-3.1H220.9c-4.1,0-8.2-.2-12.3.1-.3,0-.8-.2-.9.5s.6.5.8.8c-1,.2-1,.3-.3,1q.3.3,0,.3c-.4.1-.6.3-.5.7s.6.2.9.2c2.9,0,5.8-.1,8.7,0C218.2,80.8,219.1,80.4,219.9,81.1Z" transform="translate(-6.9 -6.9)"/>
    <path d="M68.3,24.8H60.1c.1.8.8.2,1,.8-1.1-.1-1,.7-1,1.4,0,1.6.1,3.1,0,4.7-.1,1.1.4,1.5,1.4,1.3.2,0,.4-.2.7.1-.6.6-1.7-.4-2.1.9-.1.2-.1-.1-.2-.2-.1-.6-.6-.4-1.1-.6.6,0,1.1.1,1.1-.7-.1-1.9.1-3.9-.1-5.8-.1-.7-.3-.8-.9-.8H49.6c-2.2,0-4.5,0-6.7-.1-.9,0-1.3.1-1.2,1.2s0,2.1,0,3.4a1.7,1.7,0,0,1-.4-1.4,19.22,19.22,0,0,0,0-2.4c-.2-1-.2-1.4,1.2-1.3,2.4.2,4.9,0,7.3.1,2.9.1,5.8-.2,8.7.2h.4c.3-.1.8.1.9-.4s-.6-.1-.7-.5c.2-.3.8.1.8-.5s-.7-.2-.9-.7c1.7-.2.4-1.6,1-2.3.5,0,0,.8.6.8s.4.3,0,.4c-.7.1-.6.3-.6.6,0,.5.4.3.6.3,2.5,0,4.9,0,7.4.1.5,0,.4-.2.5-.6.2-.8-.2-1.6-.1-2.7a2.3,2.3,0,0,1,.3.9c-.1.8.3.8.9.8,7.1.2,14.2-.1,21.3-.1,6.7,0,13.3.1,20,.1h3.6a3.19,3.19,0,0,1-1.9.3c-5.4,0-10.8-.1-16.2-.1-7.6,0-15.1.1-22.7.1H69.9c-.4,0-1.1-.3-1.1.6s.7.5,1.2.8c-.5.3-1.5-.2-1.3.8h0a1.27,1.27,0,0,0-1.2-.7c-2.3.1-4.5.1-6.8.1-.5,0-.8,0-.8.5s.4.3.7.3c2.1,0,4.1,0,6.2.1.5,0,1.1-.3,1.5.2Z" transform="translate(-6.9 -6.9)" fill="#626262"/>
    <path d="M219.4,25c-1,.5-2.1.2-3.1.2-9.6.1-19.3.1-28.9.1H153.1c-3.3,0-6.5.1-9.8.1-5,0-10,.3-15,0-.6,0-.4.4-.4.6a6.87,6.87,0,0,1-.2,2.4,3.93,3.93,0,0,1-.2-.6c.3-1-.4-2.3.3-2.8.5-.4,1.8,0,2.7,0h20.6c9,0,17.9-.1,26.9-.2h39.5c.7,0,1.3.2,1.9.2Z" transform="translate(-6.9 -6.9)"/>
    <path d="M12.4,16.4H40v.4H12.1v.4c8,.3,16,.1,24.1.4H28.1c-4.9,0-9.9,0-14.8-.1-1.1,0-1.3.4-1.3,1.3V32.3h-.4V27.2c0-3,.1-6.1.1-9.1,0-.9-.1-1.8-.1-2.7v-.2c-.7-.6-1.6,0-2.4-.2-.5-.1-.6.2-.6.6v1.6c-.7-.9.4-2.3-1.3-2.4a1.22,1.22,0,0,0,1.2-1.2c.1.6.2,1.4.8,1.1.8-.3,2.3.6,2.4-1.2,0,1.4.9,1.1,1.7,1.1h4.4a.83.83,0,0,1,.8.3,42.78,42.78,0,0,1-6.2-.1.47.47,0,0,0-.6.5c0,.5.4.4.7.4H40.3a.6.6,0,0,1,.6.3H12.3C12.4,16.1,12.4,16.2,12.4,16.4Z" transform="translate(-6.9 -6.9)"/>
    <path d="M293.9,69V26.7c0-1.1-.2-1.5-1.4-1.4-7.4.1-14.7,0-22.1,0-.7,0-1.4.1-2.1.1-.3,0-.8-.3-.8.5,0,.6.4.7.8.7.2,0,.5-.1.7.2-.5.4-1.8-.5-1.7,1a11.48,11.48,0,0,1,0-3.7c.1.8.5.9,1.2.9,8.2,0,16.4-.1,24.6,0,.8,0,.8-.4.8-1.3.4.8.1,1.6,1.2,1.4a1.37,1.37,0,0,0-.9,1.5V69.1C294.1,68.9,294,68.9,293.9,69Z" transform="translate(-6.9 -6.9)"/>
    <path d="M68.7,24.3c.2,0,.4.1.6.1s.9-.2.9.3-.6.2-.9.1-.4.1-.4.4.2.2.3.2c5-.2,10-.1,15-.1,7-.1,14.1,0,21.1-.1,6.3-.1,12.6-.1,18.9.1.5,0,1.2.3,1.2-.8a1.09,1.09,0,0,0,1.4.9c-1.6,0-1.3,1.1-1.3,2v7.1a.55.55,0,0,1-.3.5V26.8c0-.9-.2-1.2-1.2-1.2-8,.1-16.1,0-24.1.1-10.1.2-20.1.1-30.2.1-.6,0-1,.1-1,.8,0,.2-.2.4-.6.5V24.9h0a1.7,1.7,0,0,0,.6-.6Z" transform="translate(-6.9 -6.9)" fill="#626262"/>
    <path d="M265.4,23c-.6-.9-.1-2-.3-2.9.4-.1.5.1.5.3-.2.9.4.8,1,.8h30.1c.8,0,1.5.1,1.2-1.1-.1-.2.1-.5.3-.7.3.6-.2,1.4.5,1.7.5.2,1.2-.1,1.7.1.1.3,0,.3-.1.3-1.9.2-1.9.2-1.9,2V64h-.3V23.6c0-2.2,0-2.2-2.3-2.2-7.8.1-15.5.1-23.3.2h-5.8c-.4,0-1-.3-1,.2-.1.7.8.1.9.5-.3.7-1.2-.1-1.2.7Z" transform="translate(-6.9 -6.9)"/>
    <path d="M64,77.4c-.6,0-1.2.1-1.5-.3-.2,0-.4.1-.7.1a2,2,0,0,1-.9.2H59.3c-1.7,0-3.5.1-5.2.1h0a12.25,12.25,0,0,1-1.9.2c-.6.2-1.3-.2-2.1.2,1.7.3,3.1-.1,4.4.1.2,0,.5-.4.7,0s-.1.5-.4.5c-.1,0-.4.1-.1.2,1.1.2.3,1,.5,1.5h0c.3.8-.1,1-.8,1-2.1,0-4.1.2-6.2.1S44,81.8,42,81l-.1.5c.1.1.1.1,0,.2h0c.2,0,.4.1.6.1s.3-.1.6-.1H54.4c.7,0,1.1.1,1.1,1a1.38,1.38,0,0,1,1.1-1.2c-.7,0-1.1-.3-.9-1,.3-.9,1.1-.3,1.7-.3.9-.1-.1.7.4.9.1-.6,2-.6.6-1.8,0-.7.6-.5,1-.5a37.5,37.5,0,0,0,5.8-.2,9.7,9.7,0,0,0-1.7-.1c-.3,0-.9.2-.9-.5s.6-.5.9-.5h4.3A24.74,24.74,0,0,0,64,77.4Zm-8.4,2.3a.82.82,0,0,1-.1-.7c.3-.6.3.2.4.1s.3-.3.5-.4c.4-.1.6,0,1,.5.1.1.3,0,.6,0A2.7,2.7,0,0,1,55.6,79.7Zm5.9-1.1H56.9c-.3,0-.6,0-.6-.5s.4-.4.7-.4h4.5c.3,0,.7-.1.7.4C62.1,78.4,62,78.6,61.5,78.6Z" transform="translate(-6.9 -6.9)"/>
    <path d="M125.4,23.8V20.9c.2.6.7.7,1.3.7H143c5.1,0,10.2.1,15.3.1,9,0,17.9-.1,26.9-.1H187v.3h-4.1c-4.1,0-8.3.1-12.4.1H131.3c-1.6,0-3.1.1-4.7.1-.7,0-1,.1-.7.9C126,23.2,125.6,23.5,125.4,23.8Z" transform="translate(-6.9 -6.9)"/>
    <path d="M284.9,81.7c.1-1.3,1-.6,1.5-.7s.5.2.5.5h.3c.1-.5.3-.6.8-.6a24.32,24.32,0,0,0,2.7,0c.5,0,.7.1.8.4h.5c.2-.4.5-.4,1.2-.4,1.4.1,2.8,0,4.2,0a17.15,17.15,0,0,0-4.5-.4c-.6,0-1.1-.1-1.1-.8-.5.2.1.8-.7.9-1.2.2-1.4-.5-1.7-1.4.3,1.2-.3,1.5-1.2,1.3a14.6,14.6,0,0,0-3.6-.1c-1.7.1-3.5.1-5.2.1-4.3.1-8.6,0-12.9,0-.4,0-1,.3-1.1-.3s.5-.6,1-1.1c-.8.3-1.1.1-1-.6-.3.2-.3.6-.5.9.3.9-.1,1.8.6,2.8-.3-1.4.4-1.4,1.4-1.4h17A1,1,0,0,1,284.9,81.7Z" transform="translate(-6.9 -6.9)"/>
    <path d="M27.9,64.8V62.9c-.1-.7.3-.8.8-.8.7-.1,1.5.2,2.2-.3a26.45,26.45,0,0,0-2.7-.2c-.6-.1-.7.1-.7.6v2.6Z" transform="translate(-6.9 -6.9)"/>
    <path d="M23,62.1c3.2-.1,3.3-.1,3.1,2.6h.4a14.08,14.08,0,0,1,.1-2.9,9.86,9.86,0,0,0-2.4-.1,19.52,19.52,0,0,0-2.3.2C22.3,62.3,22.6,62.1,23,62.1Z" transform="translate(-6.9 -6.9)"/>
    <path d="M12,38.9c-.7-.4-.3-1-.3-1.6V33.9h.4v3.2c0,.7.1.8.8.6.5-.1.5.4.9.4a12.42,12.42,0,0,0,4.3,0,10.87,10.87,0,0,1,1.8-.1H38.1c1.3,0,1.4-.1,1-1.4a11.33,11.33,0,0,0,2.6-.1v4.6c0,.4-.1.7.6.7a21.66,21.66,0,0,1,3.6.1c.7,0,.9-.2.7-.9.3,1.1,1.1,1,2,.9-.5.4-1,.1-1.4.3a5.2,5.2,0,0,1-.7,3.2,10.08,10.08,0,0,0,.5-2.5c0-.6-.2-.8-.8-.8H42.7c-.6,0-1.2-.1-1,1-.5-1.6-1.7-.7-2.5-.9-.4-.1-.5,0-.3-.4a7.52,7.52,0,0,1,1.5,0c1,.1,1.2-.3,1.1-1.1-.1-1,.1-2-.1-3.1-.1-.4.2-.9-.5-.9-.4,0-1-.3-1.2.2a1,1,0,0,0,.8,1.3c-1.4-.4-.2,1.6-1.5,1.4-.1,0-.1,1.5-.2,2.3-.5-.8-.1-1.7-.3-2.5v-.2c.4,0,.9-.1.6-.6s-.8-.3-1.2-.2c-3.9.2-7.7,0-11.6.1-2.2,0-4.5.1-6.7.1-2.4,0-4.7.4-7.1-.1-.4-.3-.4.1-.5.4Z" transform="translate(-6.9 -6.9)"/>
    <path d="M127.6,77.2c.4-4.1,0-8.2.2-12.3.4,0,.3.3.3.4,0,3.7,0,7.3-.1,11,0,.6.2.6.6.6h43.5v.3Z" transform="translate(-6.9 -6.9)"/>
    <path d="M8.9,58.5v2.2a11.29,11.29,0,0,1,2.6,0c.6.1.6-.3.6-.7V55.3c0-.9,0-.9.8-.6.2.1.5-.1.6.2-.2.4-.8-.2-1,.4-.4,1-.2,1.4.9,1.4H23.7c.6,0,1.4.5,1.9-.4.1-.2.2.1.2.2,0,.4.6.3.5.4-1,.4-.1,1.4-.7,1.9-.2-1.8-.2-1.8-2.2-1.8h-10c-.8,0-1.2.2-1,1.1v.4c0,.7-.2,1.5.1,2s1.2.1,1.8.2a1.55,1.55,0,0,1,.6.3,11.25,11.25,0,0,1-3.1.2c-.2,0-.6-.2-.7.2,0,.2,0,.6.2.6.5.3.2-.4.4-.4a10.22,10.22,0,0,1,2.9.3c-2.1.4-2.1.4-2.1,2.4a8.33,8.33,0,0,1-.3,2.2V63.4c0-.4.3-1-.5-1s-.4.6-.4.9c0,1.8,0,3.5-.1,5.3a32.4,32.4,0,0,1-.2-4.4v-.8c-.1-.4.1-1-.5-.9s-.2.6-.3.9a7.5,7.5,0,0,1-.2,2,13.57,13.57,0,0,1-.1-2.8c0-.5.4-.4.7-.4.5,0,.2-.4.2-.6s-.2-.4-.4-.2c-.4.5-.7,0-.8,0-2,.3-.8-1.1-1-1.7s-.3-1.1.3-1.2Z" transform="translate(-6.9 -6.9)"/>
    <path d="M9,58.5c-.7-.5-.4-1.2-.4-1.9,0-1.1.1-2.2-1.7-1.7.6-.7,1.5.1,1.7-.8,0-.1.1-.1.2,0,1.2,1.3.5-.5.7-.5.5-.1.5.1.5.3s0,.7.5.6.5-.4.5-.7c0-1.8,0-3.6-.1-5.4,0-.6.4-1.6-.3-1.6-.9,0-.4,1.1-.4,1.7-.1,1.4,0,2.9,0,4.4H9.7v-6h0c.2-.3.2-1,.9-.5.4-.6.9-.2,1.3,0,.6.2.5-.4.5-.7-.2-1.6.3-3.3-.3-4.9-.1-.4.2-.9-.3-1.4-.2-.2.4-.3.5-.5h0a33.53,33.53,0,0,0,7.1.7c-1.9-.2-3.8.3-5.7-.1-.6-.1-1,.1-1,.9.1,1.4,0,2.9,0,4.3,0,1-.2,2.1,1.5,1.8-.5.6-1.3,0-1.5.8,0,.2-.3.1-.3-.1,0-.5-.2-.4-.6-.4s-.4.4-.4.7c0,2.1,0,4.3-.1,6.4,0,.5.3.6.7.8-.7.6-1.6.3-2.3.2s-.7.2-.7.8a13.09,13.09,0,0,0,0,2.8Z" transform="translate(-6.9 -6.9)"/>
    <path d="M200.3,22.8c-.4.5-1.1-.3-1.4.8-.1-1.1.2-2-1.3-1.7.7-.5,1.6-.6,1.3-1.7.1,1.1.6,1.2,1.4,1.2,9.1,0,18.2,0,27.3-.1h25.5a.6.6,0,0,1,.6.3h-44c-3.2,0-6.4,0-9.7.1-.3,0-.9-.2-.9.3C199.1,23,200,22.4,200.3,22.8Z" transform="translate(-6.9 -6.9)"/>
    <path d="M69.1,79h.1c.5.6-.4,1.6.4,2a4.89,4.89,0,0,0,2.1.1c6.8,0,13.6-.1,20.4-.1h19.8a12.29,12.29,0,0,1,2.7.2h-3.7c-8.1,0-16.3-.1-24.4.1-5.2.1-10.4.1-15.6.1-.8,0-1.8-.2-1.6.6.2-1.2-1.2-.4-1.9-.7a.31.31,0,0,0,.1-.2C69.2,81.4,68.8,79.9,69.1,79Z" transform="translate(-6.9 -6.9)"/>
    <path d="M35.3,81.8c.2-.2.4-.2.9-.2a17.53,17.53,0,0,1,5.6,0h.1v-.2H38.2c-.4,0-1.1.4-1.2-.5-.3.3-.5.7-1.1.6s-1.1,0-1.1.5C35,81.9,35.1,81.9,35.3,81.8Z" transform="translate(-6.9 -6.9)"/>
    <path d="M49.2,77.7H42.7c-.7,0-1-.2-.9-1a14.05,14.05,0,0,0,0-2.9v-.6a1.7,1.7,0,0,1-.1-.7c-.1.1-.1.2-.1.4a38.44,38.44,0,0,1,0,4.8c0,.1-.1.3.2.3h4.9a12.29,12.29,0,0,0,3.3-.1A.88.88,0,0,0,49.2,77.7Z" transform="translate(-6.9 -6.9)"/>
    <path d="M178.5,79.2a15.53,15.53,0,0,1-4.3.2c-.8,0-1.4.2-1.2,1.2s1,0,1.3.6a6.92,6.92,0,0,1-2.5.1c-2.4-.1-4.8,0-7.2,0H126a1,1,0,0,1-.1-.3c0-.2.1-.2.3-.1.3.3.7.1,1,.1h44.6c.7,0,1-.2.9-.9V78.9C174.6,79.2,176.5,79,178.5,79.2Z" transform="translate(-6.9 -6.9)"/>
    <path d="M219.4,25a22.66,22.66,0,0,1,5.2-.2c9.6-.1,19.2,0,28.8,0h1.3v.4H220.9a7.72,7.72,0,0,1-1.5-.2Z" transform="translate(-6.9 -6.9)"/>
    <path d="M15.5,62.7a2.2,2.2,0,0,0-.1.8c.1-.1.3-.1.4-.2V63c0-1,.5-1.1,1.1-1s1.2-.2,1.2.7v.2h.3c-.3-.7.2-1,.9-1,.5,0,1,.2,1.6-.3-2.1,0-4-.2-6.1,0C15.3,62,15.6,62.2,15.5,62.7Z" transform="translate(-6.9 -6.9)"/>
    <path d="M129.4,43.4c-.6.3-1.8-.4-1.3,1.2-.6-.4-.4-1.6-1.3-1-.5.3-.3,1.1-.1,1.6.2.7.7,0,1.4-.1-.8.4-.7,2-2,.8-.4-.4,0-.4,0-.6a4.73,4.73,0,0,0,.1-1.7c-.7-.2-.2.6-.7.7.2-1.1-.7-.8-1.3-1,1.2-.3,1.2-.3,1.2-1.5,0-2.1,0-4.1.1-6.2.4,2.5,0,5,.5,7.8.6-.9.2-1.7.6-2.5v1.6c0,.4-.1.7.5.7s.6-.3.6-.7v-12h.3v3.1c0,3,.1,6,0,9C127.9,43.6,129,42.9,129.4,43.4Z" transform="translate(-6.9 -6.9)"/>
    <path d="M21.7,77.9c-.6,0-1.3.1-1.9.1-.2,0-.6.1-.7-.3s.4-.3.6-.3c.7-.1,1.5-.1,2.3-.2a4.16,4.16,0,0,0-2.2-.2c-.6,0-.7-.4-.7-.8s.1-.7.7-.7c.3,0,.6.1.9-.1-.5-.5-1.1-.1-1.7-.6a16.13,16.13,0,0,0,2.2,0,18.92,18.92,0,0,1-2.3-.5c-.3,0-.5,0-.6.4.1.4.7-.2.7.4A12.05,12.05,0,0,1,19,77c-.2,1.1-.3,1.1-1.6,1.1H12.1v.3H22.9A1,1,0,0,0,21.7,77.9Z" transform="translate(-6.9 -6.9)"/>
    <path d="M23.4,77.5a5.69,5.69,0,0,1,0-2.6H23a2,2,0,0,1,.1.8v2.5c.9-.1,1.7-.1,2.6-.2a.1.1,0,0,0,.1-.1C25.1,77.4,23.9,78.5,23.4,77.5Z" transform="translate(-6.9 -6.9)"/>
    <path d="M41.6,15.6v5.6c0,.3-.2.7.3.7s.3-.4.3-.7a54.65,54.65,0,0,1,.3-7v5.9c.1,2,.1,2,2.1,2H56.3a11.28,11.28,0,0,1,3,.4c-6.1.2-12.1-.3-18,.2v-7A.37.37,0,0,1,41.6,15.6Z" transform="translate(-6.9 -6.9)"/>
    <path d="M38.9,59.9c.2.5.2.5,1.4,1.1H19c-.2,0-.4-.1-.6-.1h0a5.79,5.79,0,0,1,2.9-.3c1.2,0,2.4-.1,3.6,0,.9.1.3-.9.9-1-.3.8-.1,1.1.8,1.1H37.4a1.87,1.87,0,0,0,1.5-.8Z" transform="translate(-6.9 -6.9)"/>
    <path d="M198.6,76.9h2.5c-.1.4-1,.4-.7,1.1s.7.3,1.1.3a5.66,5.66,0,0,1,1.8.3,19.42,19.42,0,0,1-2.4.2c-.3,0-.5,0-.5.4s.2.2.5.2c2,.2,4,.1,6.4.2a8.8,8.8,0,0,1-2.7.2c-1.1.1-2.2.1-3.2.1-.3,0-.8-.3-.9.4s.6.5.9.8c-.3.3-1.5-.3-.9,1.1-.1-1.1-.7-1-1.2-1-2.7,0-5.5,0-8.2-.1,1.1-.5,2.3-.1,3.4-.2a45.13,45.13,0,0,1,5.2.1c.3,0,.4-.1.7-.4.5-.6-1.1-.6-.1-1.2.4-.3,0-1,.1-1.6s-.2-.7-.7-.7h-.9C198.6,77,198.6,77,198.6,76.9Z" transform="translate(-6.9 -6.9)"/>
    <path d="M39.1,62.3c-.2,1.1,0,2.1-.1,3.2-.1.9.5.8,1.1.8s1.4.4,1.4-.8c0-2.7.1-5.4,0-8.1-.1-2.9,0-5.7,0-8.6h.4a22.55,22.55,0,0,1,0,2.6c-.3,3.9.2,7.7,0,11.6a13.33,13.33,0,0,1,0,2c-.2,1,.2,1.3,1.1,1.2.2,0,.5-.1.5.3-1.1,0-2.1.1-3.2,0-.8-.1-1.4,0-1.5,1,0-1.7.1-3.3.1-5-.1-.1,0-.2.2-.2Z" transform="translate(-6.9 -6.9)"/>
    <path d="M125.7,72a50.48,50.48,0,0,1-.1-5.5V61c0-.8.4-2-1.3-1.7.8-.1,1.6-.1,1.3-1.3.5.3.1.8.7,1.3-.2-.9.7-1.7-.6-2.2-.2-.1-.1-.3.1-.3.5,0,.5-.9.9-.6s1.5.3,1.2,1.4c-.5,0-.6-1-1.2-.6-.4.4-.1,1.1-.1,1.6,0,.8.8.2,1.1.6-.7,0-1.3.3-1.1,1.1-.5-.2-.1-.7-.6-.9V71.9A.37.37,0,0,1,125.7,72Z" transform="translate(-6.9 -6.9)"/>
    <path d="M41.3,72.7c-.2.1-.2.2-.2.2-.6.3-1.5-.4-1.8.3a4.44,4.44,0,0,0-.1,2v1.6c0,.6-.1,1.2,1,1.3-.6.5-1.2.2-1.7.3-3.5.2-7.1-.2-10.6.1-.3,0-.2-.2-.2-.4s0-.3.4-.3c2.1.1,4.2.2,6.3.2h3.9c.6,0,.8-.2.8-.8-.1-1,0-2.1,0-3.1s.2-1.6,1.4-1.4Z" transform="translate(-6.9 -6.9)"/>
    <path d="M9.6,81.5H34.4v.2H9.6Z" transform="translate(-6.9 -6.9)"/>
    <path d="M265.4,23a3.8,3.8,0,0,1,.2,2.1c0,.9-.1,1.6,1.3,1.4-1.9-.1-1.1,1.3-1.4,2.1-.1-.1-.2-.1-.2-.2-.1-1.8-.1-1.8-1.8-1.8-1.1,0-2.2.1-3.2,0s-1.4.2-1.2,1.2v.7c-.6-.6.4-1.9-1.2-2.1,1.4-.4,2.6,0,3.8-.1,1-.1,2.1,0,3.1,0,.4,0,.6-.1.6-.6s0-.6-.6-.7a28.11,28.11,0,0,0-5.8,0,10.22,10.22,0,0,1-2.9-.3h7.4c1.7.1,1.7.1,1.9-1.7Z" transform="translate(-6.9 -6.9)"/>
    <path d="M9.4,46.9c-.4-.2-.5.2-.9.2V20.5h.3v24c-.1,1-.2,1.8.6,2.4Z" transform="translate(-6.9 -6.9)"/>
    <path d="M38.9,60a1.57,1.57,0,0,1-.4-1.3V49.3c0-.5.2-1.2-.9-.8.7-1,1.5-.4,2.2-.4,1.1.1,1.9.1,1.5-1.4.3,1.6.7,1.7,3.6.5a3.75,3.75,0,0,1-3.4,1.2c-2.8-.3-2.7-.3-2.8,2.5,0,3,.1,6,.2,9.1Z" transform="translate(-6.9 -6.9)"/>
    <path d="M197.7,77.2H172.8V77h25C197.7,77,197.7,77.1,197.7,77.2Z" transform="translate(-6.9 -6.9)"/>
    <path d="M198.4,22.6a13,13,0,0,1-4.8.4c-1.8.1-3.6-.1-5.3,0-.7,0-1.1-.1-1-.9.1-.5,0-1,.1-1.6,0,.5.7.9.2,1.6-.3.5.4.5.8.5h10Z" transform="translate(-6.9 -6.9)"/>
    <path d="M184.1,79.1c.7-.3,1.3.1,2,.2H185c-.7,0-.7.5-.8,1-.1.8.4.5.8.5,1.8.2,3.7-.1,5.5.1v.3h-4.1a2,2,0,0,1-.8-.1c-.9-.1-1.8-.1-1.5,1.3-.2-.7,0-1.7-.7-1.5,1.1.2.4-1.1.7-1.8Z" transform="translate(-6.9 -6.9)"/>
    <path d="M114.8,80.2V79c3.5.3,7,0,10.5.2a3.86,3.86,0,0,1-2.1.3H116C115.4,79.5,114.9,79.5,114.8,80.2Z" transform="translate(-6.9 -6.9)"/>
    <path d="M11,69.8c.2.5,0,1.3.7,1.1.9-.3.1-1.2.5-1.8.8,2.4,0,4.9.4,7.4h-.4V72.8c0-1.4-.4-1.8-1.8-1.4-.1,0-.3.6-.4.1-.1-.2,0-.5.3-.4C11.1,71,10.8,70.3,11,69.8Z" transform="translate(-6.9 -6.9)"/>
    <path d="M254.1,22.7V19.8c.3.6-.1,1.4.8,1.6.2,0,.2.3-.1.4s-.5.1-.3.4.4.1.6.1c3,0,5.9,0,8.9-.1a1.42,1.42,0,0,1,.6.2C261.1,22.8,257.6,22.4,254.1,22.7Z" transform="translate(-6.9 -6.9)"/>
    <path d="M20,39.2H35.6v.1H20Z" transform="translate(-6.9 -6.9)"/>
    <path d="M7.5,70.9c.9.2,1.3-.2,1.2-1.1.4.4-.1,1.1.7,1.1.1,0,.3.1,0,.2-.8.4-.4,1.2-.4,1.8,0,2.8,0,5.7.1,8.5,0,.3-.1.5-.1.7-.3-.1-.6-.3-1.1-.5.7,0,.9-.3.9-.8,0-3-.1-6,0-9C8.7,70.7,7.9,71.3,7.5,70.9Z" transform="translate(-6.9 -6.9)"/>
    <path d="M19.2,59.4c.1.4-.3.3-.4.3-.9,0-1.8-.1-2.9-.1,1.2-.5.6-1.3.7-2,.9-.3,1.9.2,2.8,0,.2,0,.4.2.3.4-.1.5.3,1.2-.5,1.4.3-1.3.2-1.4-1.5-1.3-.4,0-.9,0-.8.7s.4.6.8.6Z" transform="translate(-6.9 -6.9)"/>
    <path d="M116.5,21.9h-.6c-.3,0-.6-.1-.7.4s.4.5.7.5h8.3c.2,0,.5-.1.7.2-3.3.4-6.7-.2-10,.4a19.14,19.14,0,0,0,0-2.4C115.2,21.8,115.8,21.7,116.5,21.9Z" transform="translate(-6.9 -6.9)"/>
    <path d="M39.1,62.3c-.4-.5-1-.3-1.5-.3H31c.3-.5.7-.3,1.1-.3,2.4,0,4.8.2,7.3,0,.2,0,.5,0,.5.2-.1.5-.7.1-.8.4Z" transform="translate(-6.9 -6.9)"/>
    <path d="M298.2,77.3c-.4-2.3-.1-4.7-.3-7.3a2.47,2.47,0,0,1,.3,1.8,25.29,25.29,0,0,1,0,5.5Z" transform="translate(-6.9 -6.9)"/>
    <path d="M39.7,22.2c-.6.9-.2,1.9-.2,2.9a11.23,11.23,0,0,1-.3,3.1V21.1a11.73,11.73,0,0,0,.5,1.1Z" transform="translate(-6.9 -6.9)"/>
    <path d="M31,14.7c-1.4.6-2.9.1-4.3.2a11,11,0,0,1-3.1-.2,36.6,36.6,0,0,1,7.4,0Z" transform="translate(-6.9 -6.9)"/>
    <path d="M63.2,57.7V56.3c0-1.4-.1-1.5-1.4-1.2-.5.1-1.1.3-1.7.4a2,2,0,0,1,1.1-.6c.8-.2,1.8.2,2.3-.8.1-.1.1-.1.2,0a1.22,1.22,0,0,0,.4.9C63,55.6,63.7,56.8,63.2,57.7Z" transform="translate(-6.9 -6.9)"/>
    <path d="M298.2,77.3a3.8,3.8,0,0,1,.2,2.1c-.1.9.2,1.4,1.2,1.1.2,0,.5-.1.6.3-.8.3-2.4-.5-2.1,1.5a16.7,16.7,0,0,1,.1-5Z" transform="translate(-6.9 -6.9)"/>
    <path d="M126.5,77.5c-.4.2-1,.3-.9-.8a28.85,28.85,0,0,1,.2-4.1C126.1,74.2,125.7,75.9,126.5,77.5Z" transform="translate(-6.9 -6.9)"/>
    <path d="M39.7,22.2c.4-.1.7,0,.7-.6-.1-1.3,0-2.7,0-4v-.8c0-.2-.1-.4.3-.4s.2.2.2.5a15.46,15.46,0,0,0-.1,4.8c0,.2.2.4.4.6-.6.1-1.1.2-1.5-.1Z" transform="translate(-6.9 -6.9)"/>
    <path d="M264.8,78.3c-.9.3-1.8-.3-2.6.3a7.62,7.62,0,0,0-3-.2,1.62,1.62,0,0,1-1.4-.3A53,53,0,0,1,264.8,78.3Z" transform="translate(-6.9 -6.9)"/>
    <path d="M262.2,78.5c-.1.6,0,1,.8.9.3,0,.7-.2.9.2-.6.2-1.6-.4-1.8.7,0,.2-.3.2-.4,0s-.6-.6-.7-1c-.1-.2.3,0,.4,0C261.9,79.4,261.5,78.5,262.2,78.5Z" transform="translate(-6.9 -6.9)"/>
    <path d="M31,14.7a18.82,18.82,0,0,1,5.3,0,18.82,18.82,0,0,1-5.3,0Z" transform="translate(-6.9 -6.9)"/>
    <path d="M55.2,80.2c-2.3-.5-4.6.1-6.8-.5h6.1a1.79,1.79,0,0,1,.7.5Z" transform="translate(-6.9 -6.9)"/>
    <path d="M184.1,79.1c-1.7.7-3.5-.1-5.2.4v-.4Z" transform="translate(-6.9 -6.9)"/>
    <path d="M127.9,62.2a6.6,6.6,0,0,1,0-2.8c0-.2-.1-.4.2-.4.1,0,.4.1.4.2.2.2-.2.3-.2.4C128,60.4,128.2,61.3,127.9,62.2Z" transform="translate(-6.9 -6.9)"/>
    <path d="M18.5,60.9a12.9,12.9,0,0,1-3.4,0c1.1-.1,2.2-.5,3.4,0Z" transform="translate(-6.9 -6.9)"/>
  </g>
  <g id="points">
    <circle id="punkt4" cx="134.7" cy="28.8" r="6.1" fill="#b62300"/>
    <circle id="punkt3" cx="270.3" cy="59.8" r="5.2" fill="#b62300"/>
    <circle id="punkt2" cx="73" cy="63.3" r="5.4" fill="#b62300"/>
    <circle id="punkt1" cx="13.9" cy="22.8" r="5" fill="#b62300"/>
  </g>
  <g id="info-1">
    <rect x="20.7" width="69" height="27.2" fill="#ce1b1b"/>
    <text transform="translate(31.03 17)" font-size="12" font-family="MyriadPro-Regular, Myriad Pro"><tspan letter-spacing="0.01em">I</tspan><tspan x="2.99" y="0" letter-spacing="0em">n</tspan><tspan x="9.65" y="0" letter-spacing="-0.01em">f</tspan><tspan x="13" y="0">o b</tspan><tspan x="28.96" y="0" letter-spacing="-0.01em">o</tspan><tspan x="35.38" y="0">x1</tspan></text>
  </g>
  <g id="info-3">
    <rect x="193.7" y="37" width="69" height="27.2" fill="#ce1b1b"/>
    <text transform="translate(204.03 54)" font-size="12" font-family="MyriadPro-Regular, Myriad Pro"><tspan letter-spacing="0.01em">I</tspan><tspan x="2.99" y="0" letter-spacing="0em">n</tspan><tspan x="9.65" y="0" letter-spacing="-0.01em">f</tspan><tspan x="13" y="0">o b</tspan><tspan x="28.96" y="0" letter-spacing="-0.01em">o</tspan><tspan x="35.38" y="0">x3</tspan></text>
  </g>
  <g id="info-4">
    <rect x="143.9" width="69" height="27.2" fill="#ce1b1b"/>
    <text transform="translate(154.23 17)" font-size="12" font-family="MyriadPro-Regular, Myriad Pro"><tspan letter-spacing="0.01em">I</tspan><tspan x="2.99" y="0" letter-spacing="0em">n</tspan><tspan x="9.65" y="0" letter-spacing="-0.01em">f</tspan><tspan x="13" y="0">o b</tspan><tspan x="28.96" y="0" letter-spacing="-0.01em">o</tspan><tspan x="35.38" y="0">x4</tspan></text>
  </g>
  <g id="info-2">
    <rect x="80.3" y="56.8" width="69" height="27.2" fill="#ce1b1b"/>
    <text transform="translate(90.63 73.8)" font-size="12" font-family="MyriadPro-Regular, Myriad Pro"><tspan letter-spacing="0.01em">I</tspan><tspan x="2.99" y="0" letter-spacing="0em">n</tspan><tspan x="9.65" y="0" letter-spacing="-0.01em">f</tspan><tspan x="13" y="0">o b</tspan><tspan x="28.96" y="0" letter-spacing="-0.01em">o</tspan><tspan x="35.38" y="0">x2</tspan></text>
  </g>
</svg>
